<?xml version="1.0" encoding="UTF-8"?>
<!-- Generated by jsxcad -->
<!DOCTYPE svg PUBLIC "-//W3C//DTD SVG 1.1 Tiny//EN" "http://www.w3.org/Graphics/SVG/1.1/DTD/svg11-tiny.dtd">
<svg viewBox="-250 -250 500 500" width="500" height="500" xmlns="http://www.w3.org/2000/svg"><path d="M166.8627681211616,-49.530922357780774L207.75134402483954,87.71210384345258L204.81846297171495,62.63818295640344z" style="fill:rgb(247,153,162)"/><path d="M-123.33405207173885,119.73745947190515L-71.69711728749515,198.16952812869556L-54.42215759588838,216.07271720405618z" style="fill:rgb(32,47,158)"/><path d="M-106.32742497774028,-216.23189052961504L-42.95536901059394,-240.21421236921995L-74.96704990137748,-229.96571661958862z" style="fill:rgb(83,212,212)"/><path d="M169.2075461991013,-24.268786583532968L204.01447604634402,114.55435112257132L207.75134402483954,87.71210384345258z" style="fill:rgb(243,134,179)"/><path d="M-99.46373206966759,132.89980706382534L-54.42215759588838,216.07271720405618L-31.67076121832275,229.82666616844105z" style="fill:rgb(49,39,175)"/><path d="M-11.1479849110635,-246.61477819219527L-106.32742497774028,-216.23189052961504L-136.2221572275406,-199.40473563271559z" style="fill:rgb(83,212,212)"/><path d="M-132.2263513036812,110.82792643148353L-140.9027167269119,102.13469643592599L-71.69711728749515,198.16952812869556z" style="fill:rgb(32,47,158)"/><path d="M-42.95536901059394,-240.21421236921995L-106.32742497774028,-216.23189052961504L-11.1479849110635,-246.61477819219527zM19.53888125848856,-248.83603223620378L-136.2221572275406,-199.40473563271559L-163.85697825364537,-179.90919481004474zM-155.05420937301258,63.869176018313155L-151.83290946954858,81.18261950988328L-140.9027167269119,102.13469643592599z" style="fill:rgb(83,212,212)"/><path d="M-123.33405207173885,119.73745947190515L-132.2263513036812,110.82792643148353L-71.69711728749515,198.16952812869556z" style="fill:rgb(32,47,158)"/><path d="M-11.1479849110635,-246.61477819219527L-136.2221572275406,-199.40473563271559L19.53888125848856,-248.83603223620378z" style="fill:rgb(83,212,212)"/><path d="M166.8627681211616,-49.530922357780774L168.02094622729257,-37.05321354843718L207.75134402483954,87.71210384345258z" style="fill:rgb(247,153,162)"/><path d="M164.15152250739337,3.2667870848601925L193.39056865526456,141.92372381444764L204.01447604634402,114.55435112257132z" style="fill:rgb(235,115,194)"/><path d="M-70.0605386911516,140.64362804134956L-31.67076121832275,229.82666616844105L-4.229656118041558,238.48977809778347z" style="fill:rgb(69,33,191)"/><path d="M48.113517999117526,-246.59311288698703L-163.85697825364537,-179.90919481004474L-188.4403731237786,-158.21639112260092z" style="fill:rgb(83,212,212)"/><path d="M168.02094622729257,-37.05321354843718L169.2075461991013,-24.268786583532968L207.75134402483954,87.71210384345258z" style="fill:rgb(247,153,162)"/><path d="M-111.53569592822251,126.24311198321233L-123.33405207173885,119.73745947190515L-54.42215759588838,216.07271720405618z" style="fill:rgb(49,39,175)"/><path d="M-155.05420937301258,63.869176018313155L-140.9027167269119,102.13469643592599L-123.33405207173885,119.73745947190515zM19.53888125848856,-248.83603223620378L-163.85697825364537,-179.90919481004474L48.113517999117526,-246.59311288698703z" style="fill:rgb(83,212,212)"/><path d="M-99.46373206966759,132.89980706382534L-111.53569592822251,126.24311198321233L-54.42215759588838,216.07271720405618z" style="fill:rgb(49,39,175)"/><path d="M151.4499930753856,31.81599607656587L176.0786750684389,168.41089493994716L193.39056865526456,141.92372381444764z" style="fill:rgb(222,96,207)"/><path d="M167.92322311901717,-17.273878266855952L-194.1774547500505,8.524280568613076L-155.05420937301258,63.869176018313155z" style="fill:rgb(127,37,217)"/><path d="M-36.353107630979295,142.22382379858516L-4.229656118041558,238.48977809778347L26.730570214331074,241.3342453918434z" style="fill:rgb(91,32,204)"/><path d="M169.2075461991013,-24.268786583532968L166.70768981325946,-10.65474291049156L204.01447604634402,114.55435112257132z" style="fill:rgb(243,134,179)"/><path d="M73.50359792976516,-239.67386424809908L-188.4403731237786,-158.21639112260092L-209.1733644975094,-134.86059653527647zM-155.05420937301258,63.869176018313155L-123.33405207173885,119.73745947190515L-99.46373206966759,132.89980706382534zM-155.05420937301258,63.869176018313155L167.52681545700847,-15.115212719659246L167.92322311901717,-17.273878266855952z" style="fill:rgb(83,212,212)"/><path d="M166.70768981325946,-10.65474291049156L164.15152250739337,3.2667870848601925L204.01447604634402,114.55435112257132z" style="fill:rgb(243,134,179)"/><path d="M131.34035805168799,59.898519190553415L152.7446456295904,192.5419515894169L176.0786750684389,168.41089493994716z" style="fill:rgb(205,79,215)"/><path d="M-84.91040488220682,136.73267884601836L-99.46373206966759,132.89980706382534L-31.67076121832275,229.82666616844105z" style="fill:rgb(69,33,191)"/><path d="M4.570573781956845e-14,137.24808168545934L26.730570214331074,241.3342453918434L59.696411747058214,237.951274193877z" style="fill:rgb(115,34,214)"/><path d="M-155.05420937301258,63.869176018313155L-97.10565302875305,133.52079214836942L167.52681545700847,-15.115212719659246zM48.113517999117526,-246.59311288698703L-188.4403731237786,-158.21639112260092L73.50359792976516,-239.67386424809908zM-155.05420937301258,63.869176018313155L-99.46373206966759,132.89980706382534L-97.10565302875305,133.52079214836942z" style="fill:rgb(83,212,212)"/><path d="M167.54917697987673,-18.349688958504807L-194.901292781357,7.500279081813556L-194.1774547500505,8.524280568613076z" style="fill:rgb(127,37,217)"/><path d="M-70.0605386911516,140.64362804134956L-84.91040488220682,136.73267884601836L-31.67076121832275,229.82666616844105z" style="fill:rgb(69,33,191)"/><path d="M104.6062395097237,85.92133529361423L124.51604443865499,212.9128377128142L152.7446456295904,192.5419515894169z" style="fill:rgb(185,63,221)"/><path d="M37.01823890629182,125.76969236050265L59.696411747058214,237.951274193877L92.90941897328702,228.3332206780091z" style="fill:rgb(139,40,220)"/><path d="M72.57360737594512,108.32875457247393L92.90941897328702,228.3332206780091L124.51604443865499,212.9128377128142z" style="fill:rgb(163,50,222)"/><path d="M164.15152250739337,3.2667870848601925L157.8619582819058,17.40356127380891L193.39056865526456,141.92372381444764z" style="fill:rgb(235,115,194)"/><path d="M167.92322311901717,-17.273878266855952L167.54917697987673,-18.349688958504807L-194.1774547500505,8.524280568613076z" style="fill:rgb(127,37,217)"/><path d="M144.4247163882497,-115.8413116681857L168.02094622729257,-37.05321354843718L166.8627681211616,-49.530922357780774z" style="fill:rgb(247,153,162)"/><path d="M157.8619582819058,17.40356127380891L151.4499930753856,31.81599607656587L193.39056865526456,141.92372381444764z" style="fill:rgb(235,115,194)"/><path d="M-53.344810476068034,141.42715154750496L-70.0605386911516,140.64362804134956L-4.229656118041558,238.48977809778347z" style="fill:rgb(91,32,204)"/><path d="M110.13969784647085,-211.56879719443623L-209.1733644975094,-134.86059653527647L-225.2479590538,-110.45918513637787zM73.50359792976516,-239.67386424809908L-209.1733644975094,-134.86059653527647L94.56932190199336,-227.97807318738768z" style="fill:rgb(83,212,212)"/><path d="M-36.353107630979295,142.22382379858516L-53.344810476068034,141.42715154750496L-4.229656118041558,238.48977809778347z" style="fill:rgb(91,32,204)"/><path d="M144.8918321233852,-109.68502610469692L169.2075461991013,-24.268786583532968L168.02094622729257,-37.05321354843718z" style="fill:rgb(247,153,162)"/><path d="M151.4499930753856,31.81599607656587L141.47204454605316,45.75000788006352L176.0786750684389,168.41089493994716zM141.47204454605316,45.75000788006352L131.34035805168799,59.898519190553415L176.0786750684389,168.41089493994716z" style="fill:rgb(222,96,207)"/><path d="M-18.28319972063646,139.75053580274556L-36.353107630979295,142.22382379858516L26.730570214331074,241.3342453918434z" style="fill:rgb(115,34,214)"/><path d="M167.54917697987673,-18.349688958504807L144.82573410732476,-83.70584025962698L-194.901292781357,7.500279081813556z" style="fill:rgb(127,37,217)"/><path d="M110.13969784647085,-211.56879719443623L-225.2479590538,-110.45918513637787L-235.86276104313387,-85.73276529014501z" style="fill:rgb(83,212,212)"/><path d="M144.4247163882497,-115.8413116681857L144.8918321233852,-109.68502610469692L168.02094622729257,-37.05321354843718z" style="fill:rgb(247,153,162)"/><path d="M4.570573781956845e-14,137.24808168545934L-18.28319972063646,139.75053580274556L26.730570214331074,241.3342453918434z" style="fill:rgb(115,34,214)"/><path d="M131.34035805168799,59.898519190553415L118.04306413023674,72.84200349298511L152.7446456295904,192.5419515894169z" style="fill:rgb(205,79,215)"/><path d="M144.87408683484773,-83.93267388866347L167.92322311901717,-17.273878266855952L169.2075461991013,-24.268786583532968z" style="fill:rgb(243,134,179)"/><path d="M94.56932190199336,-227.97807318738768L-209.1733644975094,-134.86059653527647L110.13969784647085,-211.56879719443623z" style="fill:rgb(83,212,212)"/><path d="M118.04306413023674,72.84200349298511L104.6062395097237,85.92133529361423L152.7446456295904,192.5419515894169z" style="fill:rgb(205,79,215)"/><path d="M18.449922423071023,131.52726800467534L4.570573781956845e-14,137.24808168545934L59.696411747058214,237.951274193877zM37.01823890629182,125.76969236050265L18.449922423071023,131.52726800467534L59.696411747058214,237.951274193877z" style="fill:rgb(139,40,220)"/><path d="M104.6062395097237,85.92133529361423L88.62997688803227,97.09712653154193L124.51604443865499,212.9128377128142z" style="fill:rgb(185,63,221)"/><path d="M72.57360737594512,108.32875457247393L167.52681545700847,-15.115212719659246L-97.10565302875305,133.52079214836942z" style="fill:rgb(83,212,212)"/><path d="M88.62997688803227,97.09712653154193L72.57360737594512,108.32875457247393L124.51604443865499,212.9128377128142z" style="fill:rgb(185,63,221)"/><path d="M54.78938265092042,117.05236829594953L37.01823890629182,125.76969236050265L92.90941897328702,228.3332206780091zM72.57360737594512,108.32875457247393L54.78938265092042,117.05236829594953L92.90941897328702,228.3332206780091z" style="fill:rgb(163,50,222)"/><path d="M144.8918321233852,-109.68502610469692L146.33017241585182,-90.73435695804595L169.2075461991013,-24.268786583532968z" style="fill:rgb(247,153,162)"/><path d="M72.57360737594512,108.32875457247393L164.15152250739337,3.2667870848601925L167.52681545700847,-15.115212719659246z" style="fill:rgb(83,212,212)"/><path d="M144.87408683484773,-83.93267388866347L169.2075461991013,-24.268786583532968L146.33017241585182,-90.73435695804595z" style="fill:rgb(243,134,179)"/><path d="M72.57360737594512,108.32875457247393L-97.10565302875305,133.52079214836942L-70.0605386911516,140.64362804134956zM72.57360737594512,108.32875457247393L151.4499930753856,31.81599607656587L164.15152250739337,3.2667870848601925z" style="fill:rgb(83,212,212)"/><path d="M144.87408683484773,-83.93267388866347L145.6376178288068,-81.37061536783928L167.92322311901717,-17.273878266855952z" style="fill:rgb(243,134,179)"/><path d="M119.08282549268316,-190.73322266154983L-235.86276104313387,-85.73276529014501L-240.2554794799179,-61.51981172400567zM72.57360737594512,108.32875457247393L-70.0605386911516,140.64362804134956L-36.353107630979295,142.22382379858516z" style="fill:rgb(83,212,212)"/><path d="M-168.67618761964536,58.231872269706955L-227.89472452039763,-18.58186225281375L-181.77274905394694,45.42033805745145z" style="fill:rgb(32,47,158)"/><path d="M72.57360737594512,108.32875457247393L131.34035805168799,59.898519190553415L151.4499930753856,31.81599607656587z" style="fill:rgb(83,212,212)"/><path d="M144.4247163882497,-115.8413116681857L119.08282549268316,-190.73322266154983L144.8918321233852,-109.68502610469692z" style="fill:rgb(247,153,162)"/><path d="M110.13969784647085,-211.56879719443623L-235.86276104313387,-85.73276529014501L119.08282549268316,-190.73322266154983zM72.57360737594512,108.32875457247393L-36.353107630979295,142.22382379858516L4.570573781956845e-14,137.24808168545934zM72.57360737594512,108.32875457247393L104.6062395097237,85.92133529361423L131.34035805168799,59.898519190553415z" style="fill:rgb(83,212,212)"/><path d="M144.82573410732476,-83.70584025962698L145.6376178288068,-81.37061536783928L144.87408683484773,-83.93267388866347z" style="fill:rgb(243,134,179)"/><path d="M72.57360737594512,108.32875457247393L4.570573781956845e-14,137.24808168545934L37.01823890629182,125.76969236050265z" style="fill:rgb(83,212,212)"/><path d="M-164.19545381331199,62.61531468111391L-210.45562465478358,-2.0542816427831663L-168.67618761964536,58.231872269706955z" style="fill:rgb(32,47,158)"/><path d="M120.40963113409418,-166.0408947535798L-240.2554794799179,-61.51981172400567L-237.76122920922165,-38.780490418483986z" style="fill:rgb(83,212,212)"/><path d="M144.8918321233852,-109.68502610469692L120.40963113409418,-166.0408947535798L146.33017241585182,-90.73435695804595z" style="fill:rgb(247,153,162)"/><path d="M-146.0237882091471,71.99933380484362L-210.45562465478358,-2.0542816427831663L-164.19545381331199,62.61531468111391z" style="fill:rgb(49,39,175)"/><path d="M146.33017241585182,-90.73435695804595L120.40963113409418,-166.0408947535798L144.87408683484773,-83.93267388866347z" style="fill:rgb(243,134,179)"/><path d="M-168.67618761964536,58.231872269706955L-210.45562465478358,-2.0542816427831663L-227.89472452039763,-18.58186225281375z" style="fill:rgb(32,47,158)"/><path d="M119.08282549268316,-190.73322266154983L-240.2554794799179,-61.51981172400567L120.40963113409418,-166.0408947535798z" style="fill:rgb(83,212,212)"/><path d="M144.8918321233852,-109.68502610469692L119.08282549268316,-190.73322266154983L120.40963113409418,-166.0408947535798z" style="fill:rgb(247,153,162)"/><path d="M-139.8171817619254,75.20447972315145L-185.64288935742385,9.685643728604791L-146.0237882091471,71.99933380484362z" style="fill:rgb(49,39,175)"/><path d="M144.87408683484773,-83.93267388866347L113.41126710222596,-138.38747180635752L140.40152761593964,-63.03738699108671z" style="fill:rgb(243,134,179)"/><path d="M113.41126710222596,-138.38747180635752L-237.76122920922165,-38.780490418483986L-227.89472452039763,-18.58186225281375z" style="fill:rgb(83,212,212)"/><path d="M-117.11393845033446,80.42209275649921L-185.64288935742385,9.685643728604791L-139.8171817619254,75.20447972315145z" style="fill:rgb(69,33,191)"/><path d="M140.40152761593964,-63.03738699108671L113.41126710222596,-138.38747180635752L136.94967191059482,-55.890360315337475z" style="fill:rgb(235,115,194)"/><path d="M-146.0237882091471,71.99933380484362L-185.64288935742385,9.685643728604791L-210.45562465478358,-2.0542816427831663z" style="fill:rgb(49,39,175)"/><path d="M120.40963113409418,-166.0408947535798L-237.76122920922165,-38.780490418483986L113.41126710222596,-138.38747180635752z" style="fill:rgb(83,212,212)"/><path d="M144.87408683484773,-83.93267388866347L120.40963113409418,-166.0408947535798L113.41126710222596,-138.38747180635752z" style="fill:rgb(243,134,179)"/><path d="M-109.38199208772336,82.1988931151362L-154.15928362074803,15.645147904266635L-117.11393845033446,80.42209275649921z" style="fill:rgb(69,33,191)"/><path d="M136.94967191059482,-55.890360315337475L97.81094997262613,-109.00402909693108L126.37874283233366,-34.00410898660201z" style="fill:rgb(235,115,194)"/><path d="M-83.06768717282239,82.68825284261715L-154.15928362074803,15.645147904266635L-109.38199208772336,82.1988931151362z" style="fill:rgb(91,32,204)"/><path d="M97.81094997262613,-109.00402909693108L-227.89472452039763,-18.58186225281375L-210.45562465478358,-2.0542816427831663z" style="fill:rgb(83,212,212)"/><path d="M126.37874283233366,-34.00410898660201L97.81094997262613,-109.00402909693108L120.98166097554203,-26.876517347907637z" style="fill:rgb(222,96,207)"/><path d="M-117.11393845033446,80.42209275649921L-154.15928362074803,15.645147904266635L-185.64288935742385,9.685643728604791z" style="fill:rgb(69,33,191)"/><path d="M136.94967191059482,-55.890360315337475L113.41126710222596,-138.38747180635752L97.81094997262613,-109.00402909693108z" style="fill:rgb(235,115,194)"/><path d="M113.41126710222596,-138.38747180635752L-227.89472452039763,-18.58186225281375L97.81094997262613,-109.00402909693108z" style="fill:rgb(83,212,212)"/><path d="M-74.14182767734766,82.85424588461045L-117.27261979026805,15.091599860979901L-83.06768717282239,82.68825284261715z" style="fill:rgb(91,32,204)"/><path d="M120.98166097554203,-26.876517347907637L73.90341455294329,-79.41369927991772L104.52481707915119,-5.142234339969914z" style="fill:rgb(222,96,207)"/><path d="M-45.50112840158102,78.32691687447264L-117.27261979026805,15.091599860979901L-74.14182767734766,82.85424588461045z" style="fill:rgb(115,34,214)"/><path d="M104.52481707915119,-5.142234339969914L73.90341455294329,-79.41369927991772L97.37844162606942,1.5609894217560434z" style="fill:rgb(205,79,215)"/><path d="M73.90341455294329,-79.41369927991772L-210.45562465478358,-2.0542816427831663L-185.64288935742385,9.685643728604791z" style="fill:rgb(83,212,212)"/><path d="M-35.834039394275464,76.79873853419545L-76.8021181949886,7.688908128800988L-45.50112840158102,78.32691687447264z" style="fill:rgb(115,34,214)"/><path d="M97.37844162606942,1.5609894217560434L42.64061048322707,-51.325358343074626L75.699253394519,21.8958279097557z" style="fill:rgb(205,79,215)"/><path d="M-6.436542121773086,67.31587189150088L-76.8021181949886,7.688908128800988L-35.834039394275464,76.79873853419545z" style="fill:rgb(139,40,220)"/><path d="M-83.06768717282239,82.68825284261715L-117.27261979026805,15.091599860979901L-154.15928362074803,15.645147904266635z" style="fill:rgb(91,32,204)"/><path d="M75.699253394519,21.8958279097557L42.64061048322707,-51.325358343074626L67.14733958716226,27.765742798407878z" style="fill:rgb(185,63,221)"/><path d="M120.98166097554203,-26.876517347907637L97.81094997262613,-109.00402909693108L73.90341455294329,-79.41369927991772z" style="fill:rgb(222,96,207)"/><path d="M3.4299195917329763,64.13309799027562L-35.00607775716824,-6.399067667274946L-6.436542121773086,67.31587189150088z" style="fill:rgb(139,40,220)"/><path d="M67.14733958716226,27.765742798407878L5.625201708661789,-26.468817775107173L41.35405543761348,45.46992778779414z" style="fill:rgb(185,63,221)"/><path d="M97.81094997262613,-109.00402909693108L-210.45562465478358,-2.0542816427831663L73.90341455294329,-79.41369927991772z" style="fill:rgb(83,212,212)"/><path d="M31.867528125108084,50.138371823340144L-35.00607775716824,-6.399067667274946L3.4299195917329763,64.13309799027562zM41.35405543761348,45.46992778779414L5.625201708661789,-26.468817775107173L31.867528125108084,50.138371823340144z" style="fill:rgb(163,50,222)"/><path d="M-45.50112840158102,78.32691687447264L-76.8021181949886,7.688908128800988L-117.27261979026805,15.091599860979901z" style="fill:rgb(115,34,214)"/><path d="M42.64061048322707,-51.325358343074626L-185.64288935742385,9.685643728604791L-154.15928362074803,15.645147904266635z" style="fill:rgb(83,212,212)"/><path d="M97.37844162606942,1.5609894217560434L73.90341455294329,-79.41369927991772L42.64061048322707,-51.325358343074626z" style="fill:rgb(205,79,215)"/><path d="M73.90341455294329,-79.41369927991772L-185.64288935742385,9.685643728604791L42.64061048322707,-51.325358343074626z" style="fill:rgb(83,212,212)"/><path d="M-6.436542121773086,67.31587189150088L-35.00607775716824,-6.399067667274946L-76.8021181949886,7.688908128800988z" style="fill:rgb(139,40,220)"/><path d="M67.14733958716226,27.765742798407878L42.64061048322707,-51.325358343074626L5.625201708661789,-26.468817775107173z" style="fill:rgb(185,63,221)"/><path d="M31.867528125108084,50.138371823340144L5.625201708661789,-26.468817775107173L-35.00607775716824,-6.399067667274946z" style="fill:rgb(163,50,222)"/><path d="M5.625201708661789,-26.468817775107173L-154.15928362074803,15.645147904266635L-117.27261979026805,15.091599860979901zM42.64061048322707,-51.325358343074626L-154.15928362074803,15.645147904266635L5.625201708661789,-26.468817775107173zM-35.00607775716824,-6.399067667274946L-117.27261979026805,15.091599860979901L-76.8021181949886,7.688908128800988zM5.625201708661789,-26.468817775107173L-117.27261979026805,15.091599860979901L-35.00607775716824,-6.399067667274946z" style="fill:rgb(83,212,212)"/></svg>
