solid JSxCAD
facet normal 0 0 1
outer loop
vertex 9.69735 1.99286 20
vertex 9.69735 -1.99286 20
vertex 9.9 0 20
endloop
endfacet
facet normal 0 0 1
outer loop
vertex 9.09768 3.90412 20
vertex 9.69735 -1.99286 20
vertex 9.69735 1.99286 20
endloop
endfacet
facet normal 0 0 1
outer loop
vertex 9.09768 3.90412 20
vertex 9.09768 -3.90412 20
vertex 9.69735 -1.99286 20
endloop
endfacet
facet normal 0 0 1
outer loop
vertex 8.12556 5.65556 20
vertex 9.09768 -3.90412 20
vertex 9.09768 3.90412 20
endloop
endfacet
facet normal 0 0 1
outer loop
vertex 8.12556 5.65556 20
vertex 8.12556 -5.65556 20
vertex 9.09768 -3.90412 20
endloop
endfacet
facet normal 0 0 1
outer loop
vertex 6.82077 7.17545 20
vertex 8.12556 -5.65556 20
vertex 8.12556 5.65556 20
endloop
endfacet
facet normal 0 0 1
outer loop
vertex 6.82077 7.17545 20
vertex 6.82077 -7.17545 20
vertex 8.12556 -5.65556 20
endloop
endfacet
facet normal 0 0 1
outer loop
vertex 5.23674 8.40158 20
vertex 6.82077 -7.17545 20
vertex 6.82077 7.17545 20
endloop
endfacet
facet normal 0 0 1
outer loop
vertex 5.23674 8.40158 20
vertex 5.23674 -8.40158 20
vertex 6.82077 -7.17545 20
endloop
endfacet
facet normal 0 0 1
outer loop
vertex 3.43832 9.28375 20
vertex 5.23674 -8.40158 20
vertex 5.23674 8.40158 20
endloop
endfacet
facet normal 0 0 1
outer loop
vertex 3.43832 9.28375 20
vertex 3.43832 -9.28375 20
vertex 5.23674 -8.40158 20
endloop
endfacet
facet normal 0 0 1
outer loop
vertex 1.49913 9.78584 20
vertex 3.43832 -9.28375 20
vertex 3.43832 9.28375 20
endloop
endfacet
facet normal 0 0 1
outer loop
vertex 1.49913 9.78584 20
vertex 1.49913 -9.78584 20
vertex 3.43832 -9.28375 20
endloop
endfacet
facet normal 0 0 1
outer loop
vertex -0.50143 9.88729 20
vertex 1.49913 -9.78584 20
vertex 1.49913 9.78584 20
endloop
endfacet
facet normal 0 0 1
outer loop
vertex -0.50143 9.88729 20
vertex -0.50143 -9.88729 20
vertex 1.49913 -9.78584 20
endloop
endfacet
facet normal 0 0 1
outer loop
vertex -2.48146 9.58396 20
vertex -0.50143 -9.88729 20
vertex -0.50143 9.88729 20
endloop
endfacet
facet normal 0 0 1
outer loop
vertex -2.48146 9.58396 20
vertex -2.48146 -9.58396 20
vertex -0.50143 -9.88729 20
endloop
endfacet
facet normal 0 0 1
outer loop
vertex -2.48146 9.58396 20
vertex -4.3599 -8.88826 20
vertex -2.48146 -9.58396 20
endloop
endfacet
facet normal 0 0 1
outer loop
vertex -4.3599 8.88826 20
vertex -4.3599 -8.88826 20
vertex -2.48146 9.58396 20
endloop
endfacet
facet normal 0 0 1
outer loop
vertex -6.05985 7.82868 20
vertex -4.3599 -8.88826 20
vertex -4.3599 8.88826 20
endloop
endfacet
facet normal 0 0 1
outer loop
vertex -6.05985 7.82868 20
vertex -6.05985 -7.82868 20
vertex -4.3599 -8.88826 20
endloop
endfacet
facet normal 0 0 1
outer loop
vertex -7.51171 6.44859 20
vertex -6.05985 -7.82868 20
vertex -6.05985 7.82868 20
endloop
endfacet
facet normal 0 0 1
outer loop
vertex -7.51171 6.44859 20
vertex -7.51171 -6.44859 20
vertex -6.05985 -7.82868 20
endloop
endfacet
facet normal 0 0 1
outer loop
vertex -8.65603 4.80449 20
vertex -7.51171 -6.44859 20
vertex -7.51171 6.44859 20
endloop
endfacet
facet normal 0 0 1
outer loop
vertex -8.65603 4.80449 20
vertex -8.65603 -4.80449 20
vertex -7.51171 -6.44859 20
endloop
endfacet
facet normal 0 0 1
outer loop
vertex -9.44598 2.96369 20
vertex -8.65603 -4.80449 20
vertex -8.65603 4.80449 20
endloop
endfacet
facet normal 0 0 1
outer loop
vertex -9.44598 2.96369 20
vertex -9.44598 -2.96369 20
vertex -8.65603 -4.80449 20
endloop
endfacet
facet normal 0 0 1
outer loop
vertex -9.84921 1.00157 20
vertex -9.44598 -2.96369 20
vertex -9.44598 2.96369 20
endloop
endfacet
facet normal 0 0 1
outer loop
vertex -9.44598 -2.96369 20
vertex -9.84921 1.00157 20
vertex -9.84921 -1.00157 20
endloop
endfacet
facet normal 0 0 -1
outer loop
vertex 9.9 0 0
vertex 9.69735 -1.99286 0
vertex 9.69735 1.99286 0
endloop
endfacet
facet normal 0 0 -1
outer loop
vertex 9.69735 1.99286 0
vertex 9.69735 -1.99286 0
vertex 9.09768 3.90412 0
endloop
endfacet
facet normal 0 0 -1
outer loop
vertex 9.69735 -1.99286 0
vertex 9.09768 -3.90412 0
vertex 9.09768 3.90412 0
endloop
endfacet
facet normal 0 0 -1
outer loop
vertex 9.09768 3.90412 0
vertex 9.09768 -3.90412 0
vertex 8.12556 5.65556 0
endloop
endfacet
facet normal 0 0 -1
outer loop
vertex 9.09768 -3.90412 0
vertex 8.12556 -5.65556 0
vertex 8.12556 5.65556 0
endloop
endfacet
facet normal 0 0 -1
outer loop
vertex 8.12556 5.65556 0
vertex 8.12556 -5.65556 0
vertex 6.82077 7.17545 0
endloop
endfacet
facet normal 0 0 -1
outer loop
vertex 8.12556 -5.65556 0
vertex 6.82077 -7.17545 0
vertex 6.82077 7.17545 0
endloop
endfacet
facet normal 0 0 -1
outer loop
vertex 6.82077 7.17545 0
vertex 6.82077 -7.17545 0
vertex 5.23674 8.40158 0
endloop
endfacet
facet normal 0 0 -1
outer loop
vertex 6.82077 -7.17545 0
vertex 5.23674 -8.40158 0
vertex 5.23674 8.40158 0
endloop
endfacet
facet normal 0 0 -1
outer loop
vertex 5.23674 8.40158 0
vertex 5.23674 -8.40158 0
vertex 3.43832 9.28375 0
endloop
endfacet
facet normal 0 0 -1
outer loop
vertex 5.23674 -8.40158 0
vertex 3.43832 -9.28375 0
vertex 3.43832 9.28375 0
endloop
endfacet
facet normal 0 0 -1
outer loop
vertex 3.43832 9.28375 0
vertex 3.43832 -9.28375 0
vertex 1.49913 9.78584 0
endloop
endfacet
facet normal 0 0 -1
outer loop
vertex 3.43832 -9.28375 0
vertex 1.49913 -9.78584 0
vertex 1.49913 9.78584 0
endloop
endfacet
facet normal 0 0 -1
outer loop
vertex 1.49913 9.78584 0
vertex 1.49913 -9.78584 0
vertex -0.50143 9.88729 0
endloop
endfacet
facet normal 0 0 -1
outer loop
vertex 1.49913 -9.78584 0
vertex -0.50143 -9.88729 0
vertex -0.50143 9.88729 0
endloop
endfacet
facet normal 0 0 -1
outer loop
vertex -0.50143 9.88729 0
vertex -0.50143 -9.88729 0
vertex -2.48146 9.58396 0
endloop
endfacet
facet normal 0 0 -1
outer loop
vertex -0.50143 -9.88729 0
vertex -2.48146 -9.58396 0
vertex -2.48146 9.58396 0
endloop
endfacet
facet normal 0 0 -1
outer loop
vertex -2.48146 -9.58396 0
vertex -4.3599 -8.88826 0
vertex -2.48146 9.58396 0
endloop
endfacet
facet normal 0 0 -1
outer loop
vertex -2.48146 9.58396 0
vertex -4.3599 -8.88826 0
vertex -4.3599 8.88826 0
endloop
endfacet
facet normal 0 0 -1
outer loop
vertex -4.3599 8.88826 0
vertex -4.3599 -8.88826 0
vertex -6.05985 7.82868 0
endloop
endfacet
facet normal 0 0 -1
outer loop
vertex -4.3599 -8.88826 0
vertex -6.05985 -7.82868 0
vertex -6.05985 7.82868 0
endloop
endfacet
facet normal 0 0 -1
outer loop
vertex -6.05985 7.82868 0
vertex -6.05985 -7.82868 0
vertex -7.51171 6.44859 0
endloop
endfacet
facet normal 0 0 -1
outer loop
vertex -6.05985 -7.82868 0
vertex -7.51171 -6.44859 0
vertex -7.51171 6.44859 0
endloop
endfacet
facet normal 0 0 -1
outer loop
vertex -7.51171 6.44859 0
vertex -7.51171 -6.44859 0
vertex -8.65603 4.80449 0
endloop
endfacet
facet normal 0 0 -1
outer loop
vertex -7.51171 -6.44859 0
vertex -8.65603 -4.80449 0
vertex -8.65603 4.80449 0
endloop
endfacet
facet normal 0 0 -1
outer loop
vertex -8.65603 4.80449 0
vertex -8.65603 -4.80449 0
vertex -9.44598 2.96369 0
endloop
endfacet
facet normal 0 0 -1
outer loop
vertex -8.65603 -4.80449 0
vertex -9.44598 -2.96369 0
vertex -9.44598 2.96369 0
endloop
endfacet
facet normal 0 0 -1
outer loop
vertex -9.44598 2.96369 0
vertex -9.44598 -2.96369 0
vertex -9.84921 1.00157 0
endloop
endfacet
facet normal 0 0 -1
outer loop
vertex -9.84921 -1.00157 0
vertex -9.84921 1.00157 0
vertex -9.44598 -2.96369 0
endloop
endfacet
facet normal 0.9948690246543813 -0.10117125966523416 9.948690247927683e-7
outer loop
vertex 9.9 0 10
vertex 9.79867 -0.99643 10
vertex 9.69735 -1.99286 0
endloop
endfacet
facet normal 0.9948695271152274 -0.10116631859232512 0
outer loop
vertex 9.9 0 10
vertex 9.69735 -1.99286 0
vertex 9.9 0 0
endloop
endfacet
facet normal 0.9948700295515486 -0.10116137751187973 0
outer loop
vertex 9.79867 -0.99643 10
vertex 9.69735 -1.99286 10
vertex 9.69735 -1.99286 0
endloop
endfacet
facet normal 0.9948699273739964 -0.10116238237042059 0
outer loop
vertex 9.9 0 15
vertex 9.9 0 20
vertex 9.84934 -0.49821 15
endloop
endfacet
facet normal 0.9948695271151494 -0.1011663185923172 3.962684448583829e-7
outer loop
vertex 9.84934 -0.49821 15
vertex 9.9 0 20
vertex 9.69735 -1.99286 20
endloop
endfacet
facet normal 0.9948693936940338 -0.10116763064768061 0
outer loop
vertex 9.84934 -0.49821 15
vertex 9.69735 -1.99286 20
vertex 9.69735 -1.99286 15
endloop
endfacet
facet normal 0.05064074350557358 -0.9987169344194606 9.987169343812378e-7
outer loop
vertex 1.49913 -9.78584 10
vertex 0.49885 -9.83656 10
vertex -0.50143 -9.88729 0
endloop
endfacet
facet normal 0.05064572288818229 -0.9987166819239246 0
outer loop
vertex 1.49913 -9.78584 10
vertex -0.50143 -9.88729 0
vertex 1.49913 -9.78584 0
endloop
endfacet
facet normal 0.05065070226698889 -0.9987164294031919 0
outer loop
vertex 0.49885 -9.83656 10
vertex -0.50143 -9.88729 10
vertex -0.50143 -9.88729 0
endloop
endfacet
facet normal 0.05064074350559707 -0.9987169344199589 0
outer loop
vertex 1.49913 -9.78584 15
vertex 1.49913 -9.78584 20
vertex 0.99899 -9.8112 15
endloop
endfacet
facet normal 0.050645722888175974 -0.9987166819238001 -4.993583411201467e-7
outer loop
vertex 0.99899 -9.8112 15
vertex 1.49913 -9.78584 20
vertex -0.50143 -9.88729 20
endloop
endfacet
facet normal 0.05064738268153808 -0.9987165977530912 0
outer loop
vertex 0.99899 -9.8112 15
vertex -0.50143 -9.88729 20
vertex -0.50143 -9.88729 15
endloop
endfacet
facet normal 0.05064074350559707 -0.9987169344199589 3.561018210760429e-16
outer loop
vertex 1.49913 -9.78584 15
vertex 0.99899 -9.8112 15
vertex 0.49885 -9.83656 10
endloop
endfacet
facet normal 0.050640743505598836 -0.9987169344199588 0
outer loop
vertex 1.49913 -9.78584 15
vertex 0.49885 -9.83656 10
vertex 1.49913 -9.78584 10
endloop
endfacet
facet normal 0.05064738268153808 -0.9987165977530912 0
outer loop
vertex 0.99899 -9.8112 15
vertex -0.50143 -9.88729 15
vertex -0.50143 -9.88729 10
endloop
endfacet
facet normal 0.050650702266963624 -0.9987164294026939 -9.98716429187113e-7
outer loop
vertex 0.99899 -9.8112 15
vertex -0.50143 -9.88729 10
vertex 0.49885 -9.83656 10
endloop
endfacet
facet normal -0.6889680098150076 -0.7247917504021568 7.24791750447147e-7
outer loop
vertex -6.05985 -7.82868 10
vertex -6.78578 -7.13863 10
vertex -7.51171 -6.44859 0
endloop
endfacet
facet normal -0.688965387304753 -0.7247942432828863 0
outer loop
vertex -6.05985 -7.82868 10
vertex -7.51171 -6.44859 0
vertex -6.05985 -7.82868 0
endloop
endfacet
facet normal -0.6889627647672574 -0.7247967361710846 0
outer loop
vertex -6.78578 -7.13863 10
vertex -7.51171 -6.44859 10
vertex -7.51171 -6.44859 0
endloop
endfacet
facet normal -0.6889677505710925 -0.7247919968328906 0
outer loop
vertex -6.05985 -7.82868 15
vertex -6.05985 -7.82868 20
vertex -6.42281 -7.48366 15
endloop
endfacet
facet normal -0.6889653873047162 -0.7247942432828476 -3.2656826561444315e-7
outer loop
vertex -6.42281 -7.48366 15
vertex -6.05985 -7.82868 20
vertex -7.51171 -6.44859 20
endloop
endfacet
facet normal -0.6889645995588921 -0.7247949920871799 0
outer loop
vertex -6.42281 -7.48366 15
vertex -7.51171 -6.44859 20
vertex -7.51171 -6.44859 15
endloop
endfacet
facet normal -0.6889677505710906 -0.7247919968328888 -7.164849264328908e-8
outer loop
vertex -6.05985 -7.82868 15
vertex -6.42281 -7.48366 15
vertex -6.78578 -7.13863 10
endloop
endfacet
facet normal -0.6889680098151886 -0.7247917504023471 0
outer loop
vertex -6.05985 -7.82868 15
vertex -6.78578 -7.13863 10
vertex -6.05985 -7.82868 10
endloop
endfacet
facet normal -0.6889645995588921 -0.7247949920871799 0
outer loop
vertex -6.42281 -7.48366 15
vertex -7.51171 -6.44859 15
vertex -7.51171 -6.44859 10
endloop
endfacet
facet normal -0.6889627647670581 -0.724796736170875 -7.606307076692701e-7
outer loop
vertex -6.42281 -7.48366 15
vertex -7.51171 -6.44859 10
vertex -6.78578 -7.13863 10
endloop
endfacet
facet normal -1 0 0
outer loop
vertex -9.84921 -1.00157 10
vertex -9.84921 0 10
vertex -9.84921 1.00157 0
endloop
endfacet
facet normal -1 0 0
outer loop
vertex -9.84921 -1.00157 10
vertex -9.84921 1.00157 0
vertex -9.84921 -1.00157 0
endloop
endfacet
facet normal -1 0 0
outer loop
vertex -9.84921 0 10
vertex -9.84921 1.00157 10
vertex -9.84921 1.00157 0
endloop
endfacet
facet normal -1 0 0
outer loop
vertex -9.84921 -1.00157 15
vertex -9.84921 -1.00157 20
vertex -9.84921 -0.50078 15
endloop
endfacet
facet normal -1 0 0
outer loop
vertex -9.84921 -0.50078 15
vertex -9.84921 -1.00157 20
vertex -9.84921 1.00157 20
endloop
endfacet
facet normal -1 0 0
outer loop
vertex -9.84921 -0.50078 15
vertex -9.84921 1.00157 20
vertex -9.84921 1.00157 15
endloop
endfacet
facet normal -1 0 0
outer loop
vertex -9.84921 -1.00157 15
vertex -9.84921 -0.50078 15
vertex -9.84921 0 10
endloop
endfacet
facet normal -1 0 0
outer loop
vertex -9.84921 -1.00157 15
vertex -9.84921 0 10
vertex -9.84921 -1.00157 10
endloop
endfacet
facet normal -1 0 0
outer loop
vertex -9.84921 -0.50078 15
vertex -9.84921 1.00157 15
vertex -9.84921 1.00157 10
endloop
endfacet
facet normal -1 0 0
outer loop
vertex -9.84921 -0.50078 15
vertex -9.84921 1.00157 10
vertex -9.84921 0 10
endloop
endfacet
facet normal -0.6889627647670764 0.7247967361708944 7.24796736193715e-7
outer loop
vertex -7.51171 6.44859 10
vertex -6.78578 7.13863 10
vertex -6.05985 7.82868 0
endloop
endfacet
facet normal -0.688965387304753 0.7247942432828863 0
outer loop
vertex -7.51171 6.44859 10
vertex -6.05985 7.82868 0
vertex -7.51171 6.44859 0
endloop
endfacet
facet normal -0.6889680098151886 0.7247917504023471 0
outer loop
vertex -6.78578 7.13863 10
vertex -6.05985 7.82868 10
vertex -6.05985 7.82868 0
endloop
endfacet
facet normal -0.6889577790029819 0.724801475406389 0
outer loop
vertex -7.51171 6.44859 15
vertex -7.51171 6.44859 20
vertex -7.14874 6.79361 15
endloop
endfacet
facet normal -0.6889653873043722 0.7247942432824858 -0.0000010513625089417562
outer loop
vertex -7.14874 6.79361 15
vertex -7.51171 6.44859 20
vertex -6.05985 7.82868 20
endloop
endfacet
facet normal -0.6889679234013129 0.7247918325450989 0
outer loop
vertex -7.14874 6.79361 15
vertex -6.05985 7.82868 20
vertex -6.05985 7.82868 15
endloop
endfacet
facet normal -0.6889577790023279 0.7248014754057008 0.0000013779155579511223
outer loop
vertex -7.51171 6.44859 15
vertex -7.14874 6.79361 15
vertex -6.78578 7.13863 10
endloop
endfacet
facet normal -0.6889627647672574 0.7247967361710846 0
outer loop
vertex -7.51171 6.44859 15
vertex -6.78578 7.13863 10
vertex -7.51171 6.44859 10
endloop
endfacet
facet normal -0.6889679234013129 0.7247918325450989 0
outer loop
vertex -7.14874 6.79361 15
vertex -6.05985 7.82868 15
vertex -6.05985 7.82868 10
endloop
endfacet
facet normal -0.6889680098151881 0.7247917504023467 -3.582374065808984e-8
outer loop
vertex -7.14874 6.79361 15
vertex -6.05985 7.82868 10
vertex -6.78578 7.13863 10
endloop
endfacet
facet normal -0.3473062261988229 0.9377517716557682 0
outer loop
vertex -4.3599 8.88826 10
vertex -3.42068 9.23611 10
vertex -2.48146 9.58396 0
endloop
endfacet
facet normal -0.3473062261988229 0.9377517716557682 0
outer loop
vertex -4.3599 8.88826 10
vertex -2.48146 9.58396 0
vertex -4.3599 8.88826 0
endloop
endfacet
facet normal -0.3473062261988229 0.9377517716557682 0
outer loop
vertex -3.42068 9.23611 10
vertex -2.48146 9.58396 10
vertex -2.48146 9.58396 0
endloop
endfacet
facet normal -0.3473150061901903 0.93774851984693 0
outer loop
vertex -4.3599 8.88826 15
vertex -4.3599 8.88826 20
vertex -3.89029 9.06219 15
endloop
endfacet
facet normal -0.34730622619867024 0.9377517716553561 9.377517714544059e-7
outer loop
vertex -3.89029 9.06219 15
vertex -4.3599 8.88826 20
vertex -2.48146 9.58396 20
endloop
endfacet
facet normal -0.34730329951473643 0.9377528555787913 0
outer loop
vertex -3.89029 9.06219 15
vertex -2.48146 9.58396 20
vertex -2.48146 9.58396 15
endloop
endfacet
facet normal -0.34731500618957944 0.9377485198452808 -0.000001875497039294205
outer loop
vertex -4.3599 8.88826 15
vertex -3.89029 9.06219 15
vertex -3.42068 9.23611 10
endloop
endfacet
facet normal -0.3473062261988229 0.9377517716557682 0
outer loop
vertex -4.3599 8.88826 15
vertex -3.42068 9.23611 10
vertex -4.3599 8.88826 10
endloop
endfacet
facet normal -0.34730329951473643 0.9377528555787913 0
outer loop
vertex -3.89029 9.06219 15
vertex -2.48146 9.58396 15
vertex -2.48146 9.58396 10
endloop
endfacet
facet normal -0.34730622619867013 0.937751771655356 -9.377517714516344e-7
outer loop
vertex -3.89029 9.06219 15
vertex -2.48146 9.58396 10
vertex -3.42068 9.23611 10
endloop
endfacet
facet normal 0.6121051251414877 -0.7907764006187159 1.786712754732482e-7
outer loop
vertex 6.82077 -7.17545 10
vertex 6.02876 -7.78851 10
vertex 5.23674 -8.40158 0
endloop
endfacet
facet normal 0.6121058304811273 -0.7907758546459354 0
outer loop
vertex 6.82077 -7.17545 10
vertex 5.23674 -8.40158 0
vertex 6.82077 -7.17545 0
endloop
endfacet
facet normal 0.6121065358103908 -0.7907753086801604 0
outer loop
vertex 6.02876 -7.78851 10
vertex 5.23674 -8.40158 10
vertex 5.23674 -8.40158 0
endloop
endfacet
facet normal 0.6121099580119361 -0.790772659683316 0
outer loop
vertex 6.82077 -7.17545 15
vertex 6.82077 -7.17545 20
vertex 6.42477 -7.48198 15
endloop
endfacet
facet normal 0.6121058304810436 -0.7907758546458272 5.227708183942366e-7
outer loop
vertex 6.42477 -7.48198 15
vertex 6.82077 -7.17545 20
vertex 5.23674 -8.40158 20
endloop
endfacet
facet normal 0.6121044546611497 -0.7907769196075316 0
outer loop
vertex 6.42477 -7.48198 15
vertex 5.23674 -8.40158 20
vertex 5.23674 -8.40158 15
endloop
endfacet
facet normal 0.8743484178515132 0.48529871646291795 0
outer loop
vertex 8.12556 5.65556 10
vertex 8.61162 4.77984 10
vertex 9.09768 3.90412 0
endloop
endfacet
facet normal 0.8743484178515132 0.48529871646291795 0
outer loop
vertex 8.12556 5.65556 10
vertex 9.09768 3.90412 0
vertex 8.12556 5.65556 0
endloop
endfacet
facet normal 0.8743484178515132 0.48529871646291795 0
outer loop
vertex 8.61162 4.77984 10
vertex 9.09768 3.90412 10
vertex 9.09768 3.90412 0
endloop
endfacet
facet normal 0.8743484178515142 0.4852987164629163 0
outer loop
vertex 8.12556 5.65556 15
vertex 8.12556 5.65556 20
vertex 8.36859 5.2177 15
endloop
endfacet
facet normal 0.8743484178515132 0.48529871646291795 -1.995271480699297e-16
outer loop
vertex 8.36859 5.2177 15
vertex 8.12556 5.65556 20
vertex 9.09768 3.90412 20
endloop
endfacet
facet normal 0.8743484178515128 0.48529871646291856 0
outer loop
vertex 8.36859 5.2177 15
vertex 9.09768 3.90412 20
vertex 9.09768 3.90412 15
endloop
endfacet
facet normal 0.8743484178515132 -0.48529871646291795 0
outer loop
vertex 9.09768 -3.90412 10
vertex 8.61162 -4.77984 10
vertex 8.12556 -5.65556 0
endloop
endfacet
facet normal 0.8743484178515132 -0.48529871646291795 0
outer loop
vertex 9.09768 -3.90412 10
vertex 8.12556 -5.65556 0
vertex 9.09768 -3.90412 0
endloop
endfacet
facet normal 0.8743484178515132 -0.48529871646291795 0
outer loop
vertex 8.61162 -4.77984 10
vertex 8.12556 -5.65556 10
vertex 8.12556 -5.65556 0
endloop
endfacet
facet normal 0.8743484178515126 -0.48529871646291894 0
outer loop
vertex 9.09768 -3.90412 15
vertex 9.09768 -3.90412 20
vertex 8.85465 -4.34198 15
endloop
endfacet
facet normal 0.8743484178515132 -0.48529871646291795 -1.1084841559440539e-16
outer loop
vertex 8.85465 -4.34198 15
vertex 9.09768 -3.90412 20
vertex 8.12556 -5.65556 20
endloop
endfacet
facet normal 0.8743484178515134 -0.4852987164629176 0
outer loop
vertex 8.85465 -4.34198 15
vertex 8.12556 -5.65556 20
vertex 8.12556 -5.65556 15
endloop
endfacet
facet normal -0.820765166986796 -0.5712657355917093 7.759414516627173e-17
outer loop
vertex -7.51171 -6.44859 10
vertex -8.08387 -5.62654 10
vertex -8.65603 -4.80449 0
endloop
endfacet
facet normal -0.8207651669867959 -0.5712657355917097 0
outer loop
vertex -7.51171 -6.44859 10
vertex -8.65603 -4.80449 0
vertex -7.51171 -6.44859 0
endloop
endfacet
facet normal -0.8207651669867957 -0.57126573559171 0
outer loop
vertex -8.08387 -5.62654 10
vertex -8.65603 -4.80449 10
vertex -8.65603 -4.80449 0
endloop
endfacet
facet normal -0.8207684252915088 -0.571261054198951 0
outer loop
vertex -7.51171 -6.44859 15
vertex -7.51171 -6.44859 20
vertex -7.79779 -6.03756 15
endloop
endfacet
facet normal -0.8207651669866619 -0.5712657355916165 -5.712657355868939e-7
outer loop
vertex -7.79779 -6.03756 15
vertex -7.51171 -6.44859 20
vertex -8.65603 -4.80449 20
endloop
endfacet
facet normal -0.8207640808674239 -0.571267296068883 0
outer loop
vertex -7.79779 -6.03756 15
vertex -8.65603 -4.80449 20
vertex -8.65603 -4.80449 15
endloop
endfacet
facet normal -0.8207684252909732 -0.5712610541985781 0.0000011425221083101168
outer loop
vertex -7.51171 -6.44859 15
vertex -7.79779 -6.03756 15
vertex -8.08387 -5.62654 10
endloop
endfacet
facet normal -0.820765166986796 -0.5712657355917093 0
outer loop
vertex -7.51171 -6.44859 15
vertex -8.08387 -5.62654 10
vertex -7.51171 -6.44859 10
endloop
endfacet
facet normal -0.8207640808674239 -0.571267296068883 0
outer loop
vertex -7.79779 -6.03756 15
vertex -8.65603 -4.80449 15
vertex -8.65603 -4.80449 10
endloop
endfacet
facet normal -0.8207651669866617 -0.5712657355916168 5.712657354815874e-7
outer loop
vertex -7.79779 -6.03756 15
vertex -8.65603 -4.80449 10
vertex -8.08387 -5.62654 10
endloop
endfacet
facet normal 0.050650702266963624 0.9987164294026939 9.98716429364471e-7
outer loop
vertex -0.50143 9.88729 10
vertex 0.49885 9.83656 10
vertex 1.49913 9.78584 0
endloop
endfacet
facet normal 0.05064572288818229 0.9987166819239246 0
outer loop
vertex -0.50143 9.88729 10
vertex 1.49913 9.78584 0
vertex -0.50143 9.88729 0
endloop
endfacet
facet normal 0.050640743505598836 0.9987169344199588 0
outer loop
vertex 0.49885 9.83656 10
vertex 1.49913 9.78584 10
vertex 1.49913 9.78584 0
endloop
endfacet
facet normal 0.0506407435056006 0.9987169344199586 0
outer loop
vertex -0.50143 9.88729 15
vertex -0.50143 9.88729 20
vertex -0.00129 9.86193 15
endloop
endfacet
facet normal 0.050645722888175974 0.9987166819238001 4.993583407654305e-7
outer loop
vertex -0.00129 9.86193 15
vertex -0.50143 9.88729 20
vertex 1.49913 9.78584 20
endloop
endfacet
facet normal 0.0506473826815369 0.9987165977530913 0
outer loop
vertex -0.00129 9.86193 15
vertex 1.49913 9.78584 20
vertex 1.49913 9.78584 15
endloop
endfacet
facet normal 0.05064074350549958 0.9987169344179664 -0.000001997433868404771
outer loop
vertex -0.50143 9.88729 15
vertex -0.00129 9.86193 15
vertex 0.49885 9.83656 10
endloop
endfacet
facet normal 0.05065070226698889 0.9987164294031919 0
outer loop
vertex -0.50143 9.88729 15
vertex 0.49885 9.83656 10
vertex -0.50143 9.88729 10
endloop
endfacet
facet normal 0.0506473826815369 0.9987165977530913 0
outer loop
vertex -0.00129 9.86193 15
vertex 1.49913 9.78584 15
vertex 1.49913 9.78584 10
endloop
endfacet
facet normal 0.05064074350549782 0.9987169344179666 -0.000001997433868583515
outer loop
vertex -0.00129 9.86193 15
vertex 1.49913 9.78584 10
vertex 0.49885 9.83656 10
endloop
endfacet
facet normal 0.612106535810381 0.7907753086801478 1.786687728547022e-7
outer loop
vertex 5.23674 8.40158 10
vertex 6.02876 7.78851 10
vertex 6.82077 7.17545 0
endloop
endfacet
facet normal 0.6121058304811273 0.7907758546459354 0
outer loop
vertex 5.23674 8.40158 10
vertex 6.82077 7.17545 0
vertex 5.23674 8.40158 0
endloop
endfacet
facet normal 0.6121051251414974 0.7907764006187284 0
outer loop
vertex 6.02876 7.78851 10
vertex 6.82077 7.17545 10
vertex 6.82077 7.17545 0
endloop
endfacet
facet normal 0.6121002923245101 0.7907801414655337 0
outer loop
vertex 5.23674 8.40158 15
vertex 5.23674 8.40158 20
vertex 5.63275 8.09505 15
endloop
endfacet
facet normal 0.6121058304809768 0.7907758546457408 7.014408426935243e-7
outer loop
vertex 5.63275 8.09505 15
vertex 5.23674 8.40158 20
vertex 6.82077 7.17545 20
endloop
endfacet
facet normal 0.6121076765288569 0.7907744256957507 0
outer loop
vertex 5.63275 8.09505 15
vertex 6.82077 7.17545 20
vertex 6.82077 7.17545 15
endloop
endfacet
facet normal 0.9948700295510562 0.10116137751182967 9.948700296894431e-7
outer loop
vertex 9.69735 1.99286 10
vertex 9.79867 0.99643 10
vertex 9.9 0 0
endloop
endfacet
facet normal 0.9948695271152274 0.10116631859232512 0
outer loop
vertex 9.69735 1.99286 10
vertex 9.9 0 0
vertex 9.69735 1.99286 0
endloop
endfacet
facet normal 0.9948690246548737 0.10117125966528422 0
outer loop
vertex 9.79867 0.99643 10
vertex 9.9 0 10
vertex 9.9 0 0
endloop
endfacet
facet normal 0.9948701317260554 0.1011603726732017 0
outer loop
vertex 9.69735 1.99286 15
vertex 9.69735 1.99286 20
vertex 9.74801 1.49464 15
endloop
endfacet
facet normal 0.9948695271150492 0.10116631859230699 -5.986010820445349e-7
outer loop
vertex 9.74801 1.49464 15
vertex 9.69735 1.99286 20
vertex 9.9 0 20
endloop
endfacet
facet normal 0.9948693255678541 0.10116830058947825 0
outer loop
vertex 9.74801 1.49464 15
vertex 9.9 0 20
vertex 9.9 0 15
endloop
endfacet
facet normal 0.4403993321406271 0.8978019983544722 8.978019981598612e-7
outer loop
vertex 3.43832 9.28375 10
vertex 4.33753 8.84266 10
vertex 5.23674 8.40158 0
endloop
endfacet
facet normal 0.44039530819603057 0.8978039722115976 0
outer loop
vertex 3.43832 9.28375 10
vertex 5.23674 8.40158 0
vertex 3.43832 9.28375 0
endloop
endfacet
facet normal 0.4403912842247162 0.8978059460590051 0
outer loop
vertex 4.33753 8.84266 10
vertex 5.23674 8.40158 10
vertex 5.23674 8.40158 0
endloop
endfacet
facet normal 0.4404034322215555 0.8977999871282434 0
outer loop
vertex 3.43832 9.28375 15
vertex 3.43832 9.28375 20
vertex 3.88793 9.0632 15
endloop
endfacet
facet normal 0.44039530819584977 0.897803972211229 -9.06310650003933e-7
outer loop
vertex 3.88793 9.0632 15
vertex 3.43832 9.28375 20
vertex 5.23674 8.40158 20
endloop
endfacet
facet normal 0.4403926001233277 0.8978053005839378 0
outer loop
vertex 3.88793 9.0632 15
vertex 5.23674 8.40158 20
vertex 5.23674 8.40158 15
endloop
endfacet
facet normal 0.25064856079201653 -0.9680781471412192 7.174295864939557e-7
outer loop
vertex 3.43832 -9.28375 10
vertex 2.46873 -9.53479 10
vertex 1.49913 -9.78584 0
endloop
endfacet
facet normal 0.250652027994119 -0.9680772494292155 0
outer loop
vertex 3.43832 -9.28375 10
vertex 1.49913 -9.78584 0
vertex 3.43832 -9.28375 0
endloop
endfacet
facet normal 0.2506554951507523 -0.9680763517154684 0
outer loop
vertex 2.46873 -9.53479 10
vertex 1.49913 -9.78584 10
vertex 1.49913 -9.78584 0
endloop
endfacet
facet normal 0.25065098350512793 -0.9680775198649704 0
outer loop
vertex 3.43832 -9.28375 15
vertex 3.43832 -9.28375 20
vertex 2.95353 -9.40927 15
endloop
endfacet
facet normal 0.2506520279941175 -0.9680772494292098 -1.0806058278266474e-7
outer loop
vertex 2.95353 -9.40927 15
vertex 3.43832 -9.28375 20
vertex 1.49913 -9.78584 20
endloop
endfacet
facet normal 0.2506523761497399 -0.9680771592856063 0
outer loop
vertex 2.95353 -9.40927 15
vertex 1.49913 -9.78584 20
vertex 1.49913 -9.78584 15
endloop
endfacet
facet normal 0.25066298733453596 -0.9680744117992822 0
outer loop
vertex 2 -9.65615 15
vertex 1.49913 -9.78584 15
vertex 1.49913 -9.78584 10
endloop
endfacet
facet normal 0.25066298733453596 -0.9680744117992822 0
outer loop
vertex 2 -9.65615 15
vertex 1.49913 -9.78584 10
vertex 2 -9.65615 10
endloop
endfacet
facet normal -0.15142392064184745 -0.9884689151696935 -8.37044994665065e-7
outer loop
vertex -0.50143 -9.88729 10
vertex -1.49144 -9.73563 10
vertex -2.48146 -9.58396 0
endloop
endfacet
facet normal -0.15142805114211583 -0.9884682824083436 0
outer loop
vertex -0.50143 -9.88729 10
vertex -2.48146 -9.58396 0
vertex -0.50143 -9.88729 0
endloop
endfacet
facet normal -0.1514321815926774 -0.9884676496365891 0
outer loop
vertex -1.49144 -9.73563 10
vertex -2.48146 -9.58396 10
vertex -2.48146 -9.58396 0
endloop
endfacet
facet normal -0.15142242620802937 -0.988469144101764 0
outer loop
vertex -0.50143 -9.88729 15
vertex -0.50143 -9.88729 20
vertex -0.99644 -9.81146 15
endloop
endfacet
facet normal -0.15142805114209124 -0.988468282408183 5.699481668414968e-7
outer loop
vertex -0.99644 -9.81146 15
vertex -0.50143 -9.88729 20
vertex -2.48146 -9.58396 20
endloop
endfacet
facet normal -0.15142992612950149 -0.9884679951684898 0
outer loop
vertex -0.99644 -9.81146 15
vertex -2.48146 -9.58396 20
vertex -2.48146 -9.58396 15
endloop
endfacet
facet normal -0.15142242620802243 -0.9884691441017186 -3.0284485241072056e-7
outer loop
vertex -0.50143 -9.88729 15
vertex -0.99644 -9.81146 15
vertex -1.49144 -9.73563 10
endloop
endfacet
facet normal -0.15142392064190052 -0.9884689151700399 0
outer loop
vertex -0.50143 -9.88729 15
vertex -1.49144 -9.73563 10
vertex -0.50143 -9.88729 10
endloop
endfacet
facet normal -0.15142992612950149 -0.9884679951684898 0
outer loop
vertex -0.99644 -9.81146 15
vertex -2.48146 -9.58396 15
vertex -2.48146 -9.58396 10
endloop
endfacet
facet normal -0.15143218159264182 -0.9884676496363567 6.856032865901292e-7
outer loop
vertex -0.99644 -9.81146 15
vertex -2.48146 -9.58396 10
vertex -1.49144 -9.73563 10
endloop
endfacet
facet normal -0.15143218159262434 0.9884676496362426 -8.37035468180837e-7
outer loop
vertex -2.48146 9.58396 10
vertex -1.49144 9.73563 10
vertex -0.50143 9.88729 0
endloop
endfacet
facet normal -0.15142805114211583 0.9884682824083436 0
outer loop
vertex -2.48146 9.58396 10
vertex -0.50143 9.88729 0
vertex -2.48146 9.58396 0
endloop
endfacet
facet normal -0.15142392064190052 0.9884689151700399 0
outer loop
vertex -1.49144 9.73563 10
vertex -0.50143 9.88729 10
vertex -0.50143 9.88729 0
endloop
endfacet
facet normal -0.15144193693307667 0.9884661550796556 0
outer loop
vertex -2.48146 9.58396 15
vertex -2.48146 9.58396 20
vertex -1.98645 9.6598 15
endloop
endfacet
facet normal -0.15142805114196592 0.9884682824073652 0.0000014069883982436432
outer loop
vertex -1.98645 9.6598 15
vertex -2.48146 9.58396 20
vertex -0.50143 9.88729 20
endloop
endfacet
facet normal -0.1514234224940377 0.9884689914813677 0
outer loop
vertex -1.98645 9.6598 15
vertex -0.50143 9.88729 20
vertex -0.50143 9.88729 15
endloop
endfacet
facet normal -0.15144193693278077 0.9884661550777243 -0.0000019769323104262102
outer loop
vertex -2.48146 9.58396 15
vertex -1.98645 9.6598 15
vertex -1.49144 9.73563 10
endloop
endfacet
facet normal -0.1514321815926774 0.9884676496365891 0
outer loop
vertex -2.48146 9.58396 15
vertex -1.49144 9.73563 10
vertex -2.48146 9.58396 10
endloop
endfacet
facet normal -0.1514234224940377 0.9884689914813677 0
outer loop
vertex -1.98645 9.6598 15
vertex -0.50143 9.88729 15
vertex -0.50143 9.88729 10
endloop
endfacet
facet normal -0.15142392064189875 0.9884689151700284 -1.514239206392366e-7
outer loop
vertex -1.98645 9.6598 15
vertex -0.50143 9.88729 10
vertex -1.49144 9.73563 10
endloop
endfacet
facet normal 0.9541394978956618 0.29936235326858346 9.541394978504208e-7
outer loop
vertex 9.09768 3.90412 10
vertex 9.39751 2.94849 10
vertex 9.69735 1.99286 0
endloop
endfacet
facet normal 0.9541380719476974 0.29936689806979455 0
outer loop
vertex 9.09768 3.90412 10
vertex 9.69735 1.99286 0
vertex 9.09768 3.90412 0
endloop
endfacet
facet normal 0.954136645981913 0.29937144285049283 0
outer loop
vertex 9.39751 2.94849 10
vertex 9.69735 1.99286 10
vertex 9.69735 1.99286 0
endloop
endfacet
facet normal 0.9541357511370521 0.2993742948252794 0
outer loop
vertex 9.09768 3.90412 15
vertex 9.09768 3.90412 20
vertex 9.2476 3.42631 15
endloop
endfacet
facet normal 0.9541380719474097 0.2993668980697043 7.764359340296272e-7
outer loop
vertex 9.2476 3.42631 15
vertex 9.09768 3.90412 20
vertex 9.69735 1.99286 20
endloop
endfacet
facet normal 0.9541388455302187 0.2993644325070395 0
outer loop
vertex 9.2476 3.42631 15
vertex 9.69735 1.99286 20
vertex 9.69735 1.99286 15
endloop
endfacet
facet normal 0.4403912842245387 -0.8978059460586433 8.978059458640316e-7
outer loop
vertex 5.23674 -8.40158 10
vertex 4.33753 -8.84266 10
vertex 3.43832 -9.28375 0
endloop
endfacet
facet normal 0.44039530819603057 -0.8978039722115976 0
outer loop
vertex 5.23674 -8.40158 10
vertex 3.43832 -9.28375 0
vertex 5.23674 -8.40158 0
endloop
endfacet
facet normal 0.44039933214080457 -0.8978019983548339 0
outer loop
vertex 4.33753 -8.84266 10
vertex 3.43832 -9.28375 10
vertex 3.43832 -9.28375 0
endloop
endfacet
facet normal 0.44039523194130703 -0.8978040096164432 0
outer loop
vertex 5.23674 -8.40158 15
vertex 5.23674 -8.40158 20
vertex 4.78714 -8.62212 15
endloop
endfacet
facet normal 0.44039530819603057 -0.8978039722115976 -8.506677671400056e-9
outer loop
vertex 4.78714 -8.62212 15
vertex 5.23674 -8.40158 20
vertex 3.43832 -9.28375 20
endloop
endfacet
facet normal 0.44039533361389277 -0.8978039597434999 0
outer loop
vertex 4.78714 -8.62212 15
vertex 3.43832 -9.28375 20
vertex 3.43832 -9.28375 15
endloop
endfacet
facet normal -0.8207651669867957 0.57126573559171 6.650926728537574e-17
outer loop
vertex -8.65603 4.80449 10
vertex -8.08387 5.62654 10
vertex -7.51171 6.44859 0
endloop
endfacet
facet normal -0.8207651669867959 0.5712657355917097 0
outer loop
vertex -8.65603 4.80449 10
vertex -7.51171 6.44859 0
vertex -8.65603 4.80449 0
endloop
endfacet
facet normal -0.820765166986796 0.5712657355917093 0
outer loop
vertex -8.08387 5.62654 10
vertex -7.51171 6.44859 10
vertex -7.51171 6.44859 0
endloop
endfacet
facet normal -0.8207619086019776 0.5712704170426112 0
outer loop
vertex -8.65603 4.80449 15
vertex -8.65603 4.80449 20
vertex -8.36995 5.21551 15
endloop
endfacet
facet normal -0.8207651669866619 0.5712657355916165 -5.712657356589456e-7
outer loop
vertex -8.36995 5.21551 15
vertex -8.65603 4.80449 20
vertex -7.51171 6.44859 20
endloop
endfacet
facet normal -0.8207662530972674 0.5712641751209964 0
outer loop
vertex -8.36995 5.21551 15
vertex -7.51171 6.44859 20
vertex -7.51171 6.44859 15
endloop
endfacet
facet normal -0.8207619086014419 0.5712704170422382 0.0000011425408341415402
outer loop
vertex -8.65603 4.80449 15
vertex -8.36995 5.21551 15
vertex -8.08387 5.62654 10
endloop
endfacet
facet normal -0.8207651669867957 0.57126573559171 0
outer loop
vertex -8.65603 4.80449 15
vertex -8.08387 5.62654 10
vertex -8.65603 4.80449 10
endloop
endfacet
facet normal -0.8207662530972674 0.5712641751209964 0
outer loop
vertex -8.36995 5.21551 15
vertex -7.51171 6.44859 15
vertex -7.51171 6.44859 10
endloop
endfacet
facet normal -0.8207651669866621 0.5712657355916162 5.71265735548097e-7
outer loop
vertex -8.36995 5.21551 15
vertex -7.51171 6.44859 10
vertex -8.08387 5.62654 10
endloop
endfacet
facet normal 0.2506554951506878 0.9680763517152192 7.174208567092845e-7
outer loop
vertex 1.49913 9.78584 10
vertex 2.46873 9.53479 10
vertex 3.43832 9.28375 0
endloop
endfacet
facet normal 0.250652027994119 0.9680772494292155 0
outer loop
vertex 1.49913 9.78584 10
vertex 3.43832 9.28375 0
vertex 1.49913 9.78584 0
endloop
endfacet
facet normal 0.25064856079208103 0.9680781471414683 0
outer loop
vertex 2.46873 9.53479 10
vertex 3.43832 9.28375 10
vertex 3.43832 9.28375 0
endloop
endfacet
facet normal 0.2506648521069519 0.968073928952846 0
outer loop
vertex 1.49913 9.78584 15
vertex 1.49913 9.78584 20
vertex 1.98393 9.66031 15
endloop
endfacet
facet normal 0.25065202799389835 0.9680772494283634 -0.0000013267898600072947
outer loop
vertex 1.98393 9.66031 15
vertex 1.49913 9.78584 20
vertex 3.43832 9.28375 20
endloop
endfacet
facet normal 0.25064775323112537 0.968078356229592 0
outer loop
vertex 1.98393 9.66031 15
vertex 3.43832 9.28375 20
vertex 3.43832 9.28375 15
endloop
endfacet
facet normal 0.2506067295406972 0.96808897685539 0
outer loop
vertex 1.98393 9.66031 15
vertex 2 9.65615 14.83428
vertex 2 9.65615 10
endloop
endfacet
facet normal 0.2506629873345313 0.9680744117992643 1.9293067607959482e-7
outer loop
vertex 1.98393 9.66031 15
vertex 2 9.65615 10
vertex 1.49913 9.78584 10
endloop
endfacet
facet normal 0.2506648521069519 0.968073928952846 0
outer loop
vertex 1.98393 9.66031 15
vertex 1.49913 9.78584 10
vertex 1.49913 9.78584 15
endloop
endfacet
facet normal 0.2506067295406971 0.96808897685539 0
outer loop
vertex 2 9.65615 15
vertex 2 9.65615 14.83428
vertex 1.98393 9.66031 15
endloop
endfacet
facet normal 0.7587559888934164 0.6513749682927356 -1.073810204734941e-7
outer loop
vertex 6.82077 7.17545 10
vertex 7.47317 6.4155 10
vertex 8.12556 5.65556 0
endloop
endfacet
facet normal 0.7587563380728338 0.6513745615498839 0
outer loop
vertex 6.82077 7.17545 10
vertex 8.12556 5.65556 0
vertex 6.82077 7.17545 0
endloop
endfacet
facet normal 0.758756687256945 0.6513741548011147 0
outer loop
vertex 7.47317 6.4155 10
vertex 8.12556 5.65556 10
vertex 8.12556 5.65556 0
endloop
endfacet
facet normal 0.7587517526180985 0.6513799028976592 0
outer loop
vertex 6.82077 7.17545 15
vertex 6.82077 7.17545 20
vertex 7.14697 6.79548 15
endloop
endfacet
facet normal 0.7587563380726453 0.6513745615497221 7.050654497701204e-7
outer loop
vertex 7.14697 6.79548 15
vertex 6.82077 7.17545 20
vertex 8.12556 5.65556 20
endloop
endfacet
facet normal 0.7587578665482974 0.6513727810947247 0
outer loop
vertex 7.14697 6.79548 15
vertex 8.12556 5.65556 20
vertex 8.12556 5.65556 15
endloop
endfacet
facet normal 0.7587566872569406 -0.6513741548011109 -1.0738253232864283e-7
outer loop
vertex 8.12556 -5.65556 10
vertex 7.47317 -6.4155 10
vertex 6.82077 -7.17545 0
endloop
endfacet
facet normal 0.7587563380728338 -0.6513745615498839 0
outer loop
vertex 8.12556 -5.65556 10
vertex 6.82077 -7.17545 0
vertex 8.12556 -5.65556 0
endloop
endfacet
facet normal 0.7587559888934208 -0.6513749682927392 0
outer loop
vertex 7.47317 -6.4155 10
vertex 6.82077 -7.17545 10
vertex 6.82077 -7.17545 0
endloop
endfacet
facet normal 0.7587517526180976 -0.6513799028976601 0
outer loop
vertex 8.12556 -5.65556 15
vertex 8.12556 -5.65556 20
vertex 7.79936 -6.03553 15
endloop
endfacet
facet normal 0.7587563380726453 -0.6513745615497221 -7.050654499031388e-7
outer loop
vertex 7.79936 -6.03553 15
vertex 8.12556 -5.65556 20
vertex 6.82077 -7.17545 20
endloop
endfacet
facet normal 0.7587578665482976 -0.6513727810947244 0
outer loop
vertex 7.79936 -6.03553 15
vertex 6.82077 -7.17545 20
vertex 6.82077 -7.17545 15
endloop
endfacet
facet normal -0.5289592752597029 -0.8486472088662345 -5.289592752852831e-7
outer loop
vertex -4.3599 -8.88826 10
vertex -5.20988 -8.35847 10
vertex -6.05985 -7.82868 0
endloop
endfacet
facet normal -0.5289615162470557 -0.8486458120615548 0
outer loop
vertex -4.3599 -8.88826 10
vertex -6.05985 -7.82868 0
vertex -4.3599 -8.88826 0
endloop
endfacet
facet normal -0.5289637572496344 -0.8486444152390032 0
outer loop
vertex -5.20988 -8.35847 10
vertex -6.05985 -7.82868 10
vertex -6.05985 -7.82868 0
endloop
endfacet
facet normal -0.5289520844749218 -0.8486516908188159 0
outer loop
vertex -4.3599 -8.88826 15
vertex -4.3599 -8.88826 20
vertex -4.78489 -8.62337 15
endloop
endfacet
facet normal -0.528961516246728 -0.8486458120610292 0.0000011131265700144519
outer loop
vertex -4.78489 -8.62337 15
vertex -4.3599 -8.88826 20
vertex -6.05985 -7.82868 20
endloop
endfacet
facet normal -0.5289646601522019 -0.8486438524552367 0
outer loop
vertex -4.78489 -8.62337 15
vertex -6.05985 -7.82868 20
vertex -6.05985 -7.82868 15
endloop
endfacet
facet normal -0.5289520844741599 -0.8486516908175934 -0.0000016973033812594643
outer loop
vertex -4.3599 -8.88826 15
vertex -4.78489 -8.62337 15
vertex -5.20988 -8.35847 10
endloop
endfacet
facet normal -0.5289592752597768 -0.848647208866353 0
outer loop
vertex -4.3599 -8.88826 15
vertex -5.20988 -8.35847 10
vertex -4.3599 -8.88826 10
endloop
endfacet
facet normal -0.5289646601522019 -0.8486438524552367 0
outer loop
vertex -4.78489 -8.62337 15
vertex -6.05985 -7.82868 15
vertex -6.05985 -7.82868 10
endloop
endfacet
facet normal -0.5289637572496074 -0.84864441523896 -3.196806577806271e-7
outer loop
vertex -4.78489 -8.62337 15
vertex -6.05985 -7.82868 10
vertex -5.20988 -8.35847 10
endloop
endfacet
facet normal -0.9189559108875391 -0.39436028431373354 -9.189559108361485e-7
outer loop
vertex -8.65603 -4.80449 10
vertex -9.05101 -3.88409 10
vertex -9.44598 -2.96369 0
endloop
endfacet
facet normal -0.9189577200374006 -0.39435606852648064 0
outer loop
vertex -8.65603 -4.80449 10
vertex -9.44598 -2.96369 0
vertex -8.65603 -4.80449 0
endloop
endfacet
facet normal -0.9189595291746572 -0.39435185271416234 0
outer loop
vertex -9.05101 -3.88409 10
vertex -9.44598 -2.96369 10
vertex -9.44598 -2.96369 0
endloop
endfacet
facet normal -0.918955910887927 -0.39436028431389986 0
outer loop
vertex -8.65603 -4.80449 15
vertex -8.65603 -4.80449 20
vertex -8.85352 -4.34429 15
endloop
endfacet
facet normal -0.9189577200373037 -0.394356068526439 4.594788599763294e-7
outer loop
vertex -8.85352 -4.34429 15
vertex -8.65603 -4.80449 20
vertex -9.44598 -2.96369 20
endloop
endfacet
facet normal -0.9189583230845103 -0.39435466325847446 0
outer loop
vertex -8.85352 -4.34429 15
vertex -9.44598 -2.96369 20
vertex -9.44598 -2.96369 15
endloop
endfacet
facet normal -0.918955910887927 -0.39436028431389986 4.4339244280015616e-17
outer loop
vertex -8.65603 -4.80449 15
vertex -8.85352 -4.34429 15
vertex -9.05101 -3.88409 10
endloop
endfacet
facet normal -0.9189559108879273 -0.3943602843139001 0
outer loop
vertex -8.65603 -4.80449 15
vertex -9.05101 -3.88409 10
vertex -8.65603 -4.80449 10
endloop
endfacet
facet normal -0.9189583230845103 -0.39435466325847446 0
outer loop
vertex -8.85352 -4.34429 15
vertex -9.44598 -2.96369 15
vertex -9.44598 -2.96369 10
endloop
endfacet
facet normal -0.9189595291742693 -0.394351852713996 9.189595291450488e-7
outer loop
vertex -8.85352 -4.34429 15
vertex -9.44598 -2.96369 10
vertex -9.05101 -3.88409 10
endloop
endfacet
facet normal -0.3473062261988229 -0.9377517716557682 0
outer loop
vertex -2.48146 -9.58396 10
vertex -3.42068 -9.23611 10
vertex -4.3599 -8.88826 0
endloop
endfacet
facet normal -0.3473062261988229 -0.9377517716557682 0
outer loop
vertex -2.48146 -9.58396 10
vertex -4.3599 -8.88826 0
vertex -2.48146 -9.58396 0
endloop
endfacet
facet normal -0.3473062261988229 -0.9377517716557682 0
outer loop
vertex -3.42068 -9.23611 10
vertex -4.3599 -8.88826 10
vertex -4.3599 -8.88826 0
endloop
endfacet
facet normal -0.34729744611611457 -0.9377550234049533 0
outer loop
vertex -2.48146 -9.58396 15
vertex -2.48146 -9.58396 20
vertex -2.95107 -9.41004 15
endloop
endfacet
facet normal -0.34730622619867024 -0.9377517716553561 9.377517717869522e-7
outer loop
vertex -2.95107 -9.41004 15
vertex -2.48146 -9.58396 20
vertex -4.3599 -8.88826 20
endloop
endfacet
facet normal -0.3473091528727617 -0.9377506877261165 0
outer loop
vertex -2.95107 -9.41004 15
vertex -4.3599 -8.88826 20
vertex -4.3599 -8.88826 15
endloop
endfacet
facet normal -0.3472974461155038 -0.9377550234033041 -0.0000018755100470642587
outer loop
vertex -2.48146 -9.58396 15
vertex -2.95107 -9.41004 15
vertex -3.42068 -9.23611 10
endloop
endfacet
facet normal -0.3473062261988229 -0.9377517716557682 0
outer loop
vertex -2.48146 -9.58396 15
vertex -3.42068 -9.23611 10
vertex -2.48146 -9.58396 10
endloop
endfacet
facet normal -0.3473091528727617 -0.9377506877261165 0
outer loop
vertex -2.95107 -9.41004 15
vertex -4.3599 -8.88826 15
vertex -4.3599 -8.88826 10
endloop
endfacet
facet normal -0.34730622619867013 -0.937751771655356 -9.377517717841806e-7
outer loop
vertex -2.95107 -9.41004 15
vertex -4.3599 -8.88826 10
vertex -3.42068 -9.23611 10
endloop
endfacet
facet normal 0.9541366459814785 -0.2993714428503565 9.541366459362373e-7
outer loop
vertex 9.69735 -1.99286 10
vertex 9.39751 -2.94849 10
vertex 9.09768 -3.90412 0
endloop
endfacet
facet normal 0.9541380719476974 -0.29936689806979455 0
outer loop
vertex 9.69735 -1.99286 10
vertex 9.09768 -3.90412 0
vertex 9.69735 -1.99286 0
endloop
endfacet
facet normal 0.954139497896096 -0.2993623532687197 0
outer loop
vertex 9.39751 -2.94849 10
vertex 9.09768 -3.90412 10
vertex 9.09768 -3.90412 0
endloop
endfacet
facet normal 0.9541357511370521 -0.2993742948252793 0
outer loop
vertex 9.69735 -1.99286 15
vertex 9.69735 -1.99286 20
vertex 9.54743 -2.47067 15
endloop
endfacet
facet normal 0.9541380719474097 -0.2993668980697043 -7.764359340185423e-7
outer loop
vertex 9.54743 -2.47067 15
vertex 9.69735 -1.99286 20
vertex 9.09768 -3.90412 20
endloop
endfacet
facet normal 0.9541388455302185 -0.2993644325070395 0
outer loop
vertex 9.54743 -2.47067 15
vertex 9.09768 -3.90412 20
vertex 9.09768 -3.90412 15
endloop
endfacet
facet normal -0.9795305230307457 -0.20129568909977713 9.795305231741624e-7
outer loop
vertex -9.44598 -2.96369 10
vertex -9.64759 -1.98263 10
vertex -9.84921 -1.00157 0
endloop
endfacet
facet normal -0.9795295386811209 -0.20130047901371337 0
outer loop
vertex -9.44598 -2.96369 10
vertex -9.84921 -1.00157 0
vertex -9.44598 -2.96369 0
endloop
endfacet
facet normal -0.9795285543095819 -0.20130526891311243 0
outer loop
vertex -9.64759 -1.98263 10
vertex -9.84921 -1.00157 10
vertex -9.84921 -1.00157 0
endloop
endfacet
facet normal -0.9795285543095822 -0.20130526891311062 0
outer loop
vertex -9.44598 -2.96369 15
vertex -9.44598 -2.96369 20
vertex -9.54679 -2.47316 15
endloop
endfacet
facet normal -0.9795295386810035 -0.20130047901368922 4.897647692293091e-7
outer loop
vertex -9.54679 -2.47316 15
vertex -9.44598 -2.96369 20
vertex -9.84921 -1.00157 20
endloop
endfacet
facet normal -0.9795298668002017 -0.2012988823773719 0
outer loop
vertex -9.54679 -2.47316 15
vertex -9.84921 -1.00157 20
vertex -9.84921 -1.00157 15
endloop
endfacet
facet normal -0.9795285543077027 -0.20130526891272435 -0.000001959057108541979
outer loop
vertex -9.44598 -2.96369 15
vertex -9.54679 -2.47316 15
vertex -9.64759 -1.98263 10
endloop
endfacet
facet normal -0.9795305230312157 -0.20129568909987372 0
outer loop
vertex -9.44598 -2.96369 15
vertex -9.64759 -1.98263 10
vertex -9.44598 -2.96369 10
endloop
endfacet
facet normal -0.9795298668002017 -0.2012988823773719 0
outer loop
vertex -9.54679 -2.47316 15
vertex -9.84921 -1.00157 15
vertex -9.84921 -1.00157 10
endloop
endfacet
facet normal -0.9795285543077024 -0.20130526891272615 -0.00000195905710872488
outer loop
vertex -9.54679 -2.47316 15
vertex -9.84921 -1.00157 10
vertex -9.64759 -1.98263 10
endloop
endfacet
facet normal -0.9189595291742693 0.3943518527139959 -9.18959529122879e-7
outer loop
vertex -9.44598 2.96369 10
vertex -9.05101 3.88409 10
vertex -8.65603 4.80449 0
endloop
endfacet
facet normal -0.9189577200374006 0.39435606852648064 0
outer loop
vertex -9.44598 2.96369 10
vertex -8.65603 4.80449 0
vertex -9.44598 2.96369 0
endloop
endfacet
facet normal -0.9189559108879273 0.3943602843139001 0
outer loop
vertex -9.05101 3.88409 10
vertex -8.65603 4.80449 10
vertex -8.65603 4.80449 0
endloop
endfacet
facet normal -0.918955910887927 0.39436028431390024 0
outer loop
vertex -9.44598 2.96369 15
vertex -9.44598 2.96369 20
vertex -9.24849 3.42389 15
endloop
endfacet
facet normal -0.9189577200373037 0.394356068526439 -4.594788600151263e-7
outer loop
vertex -9.24849 3.42389 15
vertex -9.44598 2.96369 20
vertex -8.65603 4.80449 20
endloop
endfacet
facet normal -0.9189583230845104 0.3943546632584744 0
outer loop
vertex -9.24849 3.42389 15
vertex -8.65603 4.80449 20
vertex -8.65603 4.80449 15
endloop
endfacet
facet normal -0.918955910886375 0.39436028431323417 0.0000018379118217032241
outer loop
vertex -9.44598 2.96369 15
vertex -9.24849 3.42389 15
vertex -9.05101 3.88409 10
endloop
endfacet
facet normal -0.9189595291746572 0.39435185271416234 0
outer loop
vertex -9.44598 2.96369 15
vertex -9.05101 3.88409 10
vertex -9.44598 2.96369 10
endloop
endfacet
facet normal -0.9189583230845104 0.3943546632584744 0
outer loop
vertex -9.24849 3.42389 15
vertex -8.65603 4.80449 15
vertex -8.65603 4.80449 10
endloop
endfacet
facet normal -0.9189559108863752 0.394360284313234 0.0000018379118216810539
outer loop
vertex -9.24849 3.42389 15
vertex -8.65603 4.80449 10
vertex -9.05101 3.88409 10
endloop
endfacet
facet normal -0.5289637572495605 0.8486444152388846 -5.289637572751408e-7
outer loop
vertex -6.05985 7.82868 10
vertex -5.20988 8.35847 10
vertex -4.3599 8.88826 0
endloop
endfacet
facet normal -0.5289615162470557 0.8486458120615548 0
outer loop
vertex -6.05985 7.82868 10
vertex -4.3599 8.88826 0
vertex -6.05985 7.82868 0
endloop
endfacet
facet normal -0.5289592752597768 0.848647208866353 0
outer loop
vertex -5.20988 8.35847 10
vertex -4.3599 8.88826 10
vertex -4.3599 8.88826 0
endloop
endfacet
facet normal -0.5289664659307028 0.8486427269003032 0
outer loop
vertex -6.05985 7.82868 15
vertex -6.05985 7.82868 20
vertex -5.63486 8.09358 15
endloop
endfacet
facet normal -0.5289615162469654 0.84864581206141 5.841650537424057e-7
outer loop
vertex -5.63486 8.09358 15
vertex -6.05985 7.82868 20
vertex -4.3599 8.88826 20
endloop
endfacet
facet normal -0.5289598663275697 0.8486468404552742 0
outer loop
vertex -5.63486 8.09358 15
vertex -4.3599 8.88826 20
vertex -4.3599 8.88826 15
endloop
endfacet
facet normal -0.5289664659305947 0.8486427269001298 -6.393525215216197e-7
outer loop
vertex -6.05985 7.82868 15
vertex -5.63486 8.09358 15
vertex -5.20988 8.35847 10
endloop
endfacet
facet normal -0.5289637572496344 0.8486444152390032 0
outer loop
vertex -6.05985 7.82868 15
vertex -5.20988 8.35847 10
vertex -6.05985 7.82868 10
endloop
endfacet
facet normal -0.5289598663275697 0.8486468404552742 0
outer loop
vertex -5.63486 8.09358 15
vertex -4.3599 8.88826 15
vertex -4.3599 8.88826 10
endloop
endfacet
facet normal -0.5289592752597653 0.8486472088663345 2.092713418866744e-7
outer loop
vertex -5.63486 8.09358 15
vertex -4.3599 8.88826 10
vertex -5.20988 8.35847 10
endloop
endfacet
facet normal -0.9795285543091119 0.20130526891301587 9.79528554452529e-7
outer loop
vertex -9.84921 1.00157 10
vertex -9.64759 1.98263 10
vertex -9.44598 2.96369 0
endloop
endfacet
facet normal -0.9795295386811209 0.20130047901371337 0
outer loop
vertex -9.84921 1.00157 10
vertex -9.44598 2.96369 0
vertex -9.84921 1.00157 0
endloop
endfacet
facet normal -0.9795305230312157 0.20129568909987372 0
outer loop
vertex -9.64759 1.98263 10
vertex -9.44598 2.96369 10
vertex -9.44598 2.96369 0
endloop
endfacet
facet normal -0.9795285543095822 0.20130526891311074 0
outer loop
vertex -9.84921 1.00157 15
vertex -9.84921 1.00157 20
vertex -9.7484 1.4921 15
endloop
endfacet
facet normal -0.9795295386810035 0.20130047901368922 -4.89764769240394e-7
outer loop
vertex -9.7484 1.4921 15
vertex -9.84921 1.00157 20
vertex -9.44598 2.96369 20
endloop
endfacet
facet normal -0.9795298668002018 0.2012988823773719 0
outer loop
vertex -9.7484 1.4921 15
vertex -9.44598 2.96369 20
vertex -9.44598 2.96369 15
endloop
endfacet
facet normal -0.9795285543095822 0.20130526891311074 -3.4917433551033766e-16
outer loop
vertex -9.84921 1.00157 15
vertex -9.7484 1.4921 15
vertex -9.64759 1.98263 10
endloop
endfacet
facet normal -0.9795285543095819 0.20130526891311243 0
outer loop
vertex -9.84921 1.00157 15
vertex -9.64759 1.98263 10
vertex -9.84921 1.00157 10
endloop
endfacet
facet normal -0.9795298668002018 0.2012988823773719 0
outer loop
vertex -9.7484 1.4921 15
vertex -9.44598 2.96369 15
vertex -9.44598 2.96369 10
endloop
endfacet
facet normal -0.9795305230307457 0.20129568909977713 -9.795305233515212e-7
outer loop
vertex -9.7484 1.4921 15
vertex -9.44598 2.96369 10
vertex -9.64759 1.98263 10
endloop
endfacet
facet normal 0 0 1
outer loop
vertex 9.09768 3.90412 10
vertex 8.12556 5.65556 10
vertex 6.82077 7.17545 10
endloop
endfacet
facet normal 0 0 1
outer loop
vertex 9.09768 3.90412 10
vertex 6.82077 7.17545 10
vertex 5.23674 8.40158 10
endloop
endfacet
facet normal 0 0 1
outer loop
vertex 9.09768 3.90412 10
vertex 5.23674 8.40158 10
vertex 3.43832 9.28375 10
endloop
endfacet
facet normal 0 0 1
outer loop
vertex 9.09768 3.90412 10
vertex 3.43832 9.28375 10
vertex 2.15343 9.61643 10
endloop
endfacet
facet normal 0 0 1
outer loop
vertex 9.09768 3.90412 10
vertex 2.15343 9.61643 10
vertex 8.20498 -5.51246 10
endloop
endfacet
facet normal 0 0 1
outer loop
vertex 9.09768 3.90412 10
vertex 8.20498 -5.51246 10
vertex 9.09768 -3.90412 10
endloop
endfacet
facet normal 0 0 1
outer loop
vertex 9.09768 3.90412 10
vertex 9.09768 -3.90412 10
vertex 9.69735 -1.99286 10
endloop
endfacet
facet normal 0 0 1
outer loop
vertex 9.09768 3.90412 10
vertex 9.69735 -1.99286 10
vertex 9.9 0 10
endloop
endfacet
facet normal 0 0 1
outer loop
vertex 9.09768 3.90412 10
vertex 9.9 0 10
vertex 9.69735 1.99286 10
endloop
endfacet
facet normal 0 0 1
outer loop
vertex 2 -9.65615 10
vertex 3.43832 -9.28375 10
vertex 5.23674 -8.40158 10
endloop
endfacet
facet normal 0 0 1
outer loop
vertex 2 -9.65615 10
vertex 5.23674 -8.40158 10
vertex 6.82077 -7.17545 10
endloop
endfacet
facet normal 0 0 1
outer loop
vertex 2 -9.65615 10
vertex 6.82077 -7.17545 10
vertex 8.12556 -5.65556 10
endloop
endfacet
facet normal 0 0 1
outer loop
vertex 2 -9.65615 10
vertex 8.12556 -5.65556 10
vertex 8.20498 -5.51246 10
endloop
endfacet
facet normal 0 0 1
outer loop
vertex 2 -9.65615 10
vertex 8.20498 -5.51246 10
vertex 2.15343 9.61643 10
endloop
endfacet
facet normal 0 0 1
outer loop
vertex 2 -9.65615 10
vertex 2.15343 9.61643 10
vertex 2 9.65615 10
endloop
endfacet
facet normal 0 0 -1
outer loop
vertex 9.09768 -3.90412 15
vertex 8.20498 -5.51246 15
vertex 2.15343 9.61643 15
endloop
endfacet
facet normal 0 0 -1
outer loop
vertex 9.09768 -3.90412 15
vertex 2.15343 9.61643 15
vertex 3.43832 9.28375 15
endloop
endfacet
facet normal 0 0 -1
outer loop
vertex 9.09768 -3.90412 15
vertex 3.43832 9.28375 15
vertex 5.23674 8.40158 15
endloop
endfacet
facet normal 0 0 -1
outer loop
vertex 9.09768 -3.90412 15
vertex 5.23674 8.40158 15
vertex 6.82077 7.17545 15
endloop
endfacet
facet normal 0 0 -1
outer loop
vertex 9.09768 -3.90412 15
vertex 6.82077 7.17545 15
vertex 8.12556 5.65556 15
endloop
endfacet
facet normal 0 0 -1
outer loop
vertex 9.09768 -3.90412 15
vertex 8.12556 5.65556 15
vertex 9.09768 3.90412 15
endloop
endfacet
facet normal 0 0 -1
outer loop
vertex 9.09768 -3.90412 15
vertex 9.09768 3.90412 15
vertex 9.69735 1.99286 15
endloop
endfacet
facet normal 0 0 -1
outer loop
vertex 9.09768 -3.90412 15
vertex 9.69735 1.99286 15
vertex 9.9 0 15
endloop
endfacet
facet normal 0 0 -1
outer loop
vertex 9.09768 -3.90412 15
vertex 9.9 0 15
vertex 9.69735 -1.99286 15
endloop
endfacet
facet normal 0 0 -1
outer loop
vertex 6.82077 -7.17545 15
vertex 5.23674 -8.40158 15
vertex 3.43832 -9.28375 15
endloop
endfacet
facet normal 0 0 -1
outer loop
vertex 6.82077 -7.17545 15
vertex 3.43832 -9.28375 15
vertex 2 -9.65615 15
endloop
endfacet
facet normal 0 0 -1
outer loop
vertex 6.82077 -7.17545 15
vertex 2 -9.65615 15
vertex 2 9.65615 15
endloop
endfacet
facet normal 0 0 -1
outer loop
vertex 6.82077 -7.17545 15
vertex 2 9.65615 15
vertex 2.15343 9.61643 15
endloop
endfacet
facet normal 0 0 -1
outer loop
vertex 6.82077 -7.17545 15
vertex 2.15343 9.61643 15
vertex 8.20498 -5.51246 15
endloop
endfacet
facet normal 0 0 -1
outer loop
vertex 6.82077 -7.17545 15
vertex 8.20498 -5.51246 15
vertex 8.12556 -5.65556 15
endloop
endfacet
facet normal 1 0 0
outer loop
vertex 2 9.65615 10
vertex 2 9.65615 10.08596
vertex 2 -9.65615 14.91404
endloop
endfacet
facet normal 1 0 0
outer loop
vertex 2 9.65615 10
vertex 2 -9.65615 14.91404
vertex 2 -9.65615 10
endloop
endfacet
facet normal 1 0 0
outer loop
vertex 2 9.65615 10.08596
vertex 2 9.65615 15
vertex 2 -9.65615 15
endloop
endfacet
facet normal 1 0 0
outer loop
vertex 2 9.65615 10.08596
vertex 2 -9.65615 15
vertex 2 -9.65615 14.91404
endloop
endfacet
endsolid JSxCAD
